# xmcd CD database file
#
# Track frame offsets:
#	150
#	13332
#	25635
#	39305
#	54297
#	72292
#	83082
#	97377
#	109615
#	123345
#
# Disc length: 1771 seconds
#
# Revision: 0
# Processed by: cddbd v1.4PL0 Copyright (c) Steve Scherf et al.
# Submitted via: CDex 1.50
#
DISCID=7a06e90a
DTITLE=The Choice Country Band - The Choice Country Band
DYEAR=2002
DGENRE=Country
TTITLE0=Still a lot of Love in San Anotone'-Bobby Pierce
TTITLE1=Undo the Right-Shelley Porterfield
TTITLE2=Heartaches by the Number-Dick Rappolee
TTITLE3=Sensuous Woman-Bobby Pierce
TTITLE4=I Can't Stop Loving You-Shelley Porterfield
TTITLE5=I'll Be There-Dick Rappolee
TTITLE6=Talk Back Trembling Lips-Bobby Pierce
TTITLE7=Two More Bottles of Wine-Shelley Porterfield
TTITLE8=Swingin' Doors-Dick Rappolee
TTITLE9=Sugar Moon-Shelley Porterfield
EXTD=YEAR: 2002
EXTT0=
EXTT1=
EXTT2=
EXTT3=
EXTT4=
EXTT5=
EXTT6=
EXTT7=
EXTT8=
EXTT9=
PLAYORDER=
